<svg xmlns="http://www.w3.org/2000/svg" xmlns:xlink="http://www.w3.org/1999/xlink" xmlns:lucid="lucid" width="1069.17" height="941.67"><g transform="translate(0 0)" lucid:page-tab-id="0_0"><path d="M0 0h1069.17v941.67H0z" fill="#fff"/><path d="M116.2 230.4h131v40h-131zM247.2 230.4h131v40h-131z" fill="#b2b2b2"/><path d="M378.2 230.4h228v40h-228z" fill="#a3d977"/><path d="M116.2 270.4h131v40h-131zM247.2 270.4h131v40h-131z" fill="#fff"/><path d="M378.2 270.4h228v40h-228z" fill="#c7e8ac"/><path d="M116.2 270.4h131M247.2 270.4h131M378.2 270.4h228M116.2 270.4h131M247.2 270.4h131M378.2 270.4h228M247.2 230.4v40M247.2 230.4v40m131-40v40M378.2 230.4v40M247.2 270.4v40M247.2 270.4v40m131-40v40M378.2 270.4v40M116.2 230.4h490v80h-490z" stroke="#000" fill="none"/><use xlink:href="#a" transform="matrix(1,0,0,1,121.20616741946827,235.39911303400208) translate(31.549999999999997 18.6)"/><use xlink:href="#b" transform="matrix(1,0,0,1,121.20616741946827,235.39911303400208) translate(74.45 18.6)"/><use xlink:href="#c" transform="matrix(1,0,0,1,252.20616741946827,235.39911303400208) translate(24.074999999999996 18.6)"/><use xlink:href="#d" transform="matrix(1,0,0,1,252.20616741946827,235.39911303400208) translate(53.974999999999994 18.6)"/><use xlink:href="#e" transform="matrix(1,0,0,1,383.2061674194683,235.39911303400208) translate(41.2 18.6)"/><use xlink:href="#f" transform="matrix(1,0,0,1,121.20616741946827,275.3991130340021) translate(55.5 18.6)"/><use xlink:href="#g" transform="matrix(1,0,0,1,252.20616741946827,275.3991130340021) translate(35.5 18.6)"/><use xlink:href="#h" transform="matrix(1,0,0,1,383.2061674194683,275.3991130340021) translate(94 18.6)"/><path d="M46.7 452.4h131v40h-131zM177.7 452.4h131v40h-131zM308.7 452.4h131v40h-131zM439.7 452.4h131v40h-131z" fill="#b2b2b2"/><path d="M570.7 452.4h131v40h-131z" fill="#a3d977"/><path d="M46.7 492.4h131v40h-131zM177.7 492.4h131v40h-131zM308.7 492.4h131v40h-131zM439.7 492.4h131v40h-131z" fill="#fff"/><path d="M570.7 492.4h131v40h-131z" fill="#c7e8ac"/><path d="M46.7 532.4h131v40h-131zM177.7 532.4h131v40h-131zM308.7 532.4h131v40h-131zM439.7 532.4h131v40h-131z" fill="#fff"/><path d="M570.7 532.4h131v40h-131z" fill="#c7e8ac"/><path d="M46.7 492.4h131M177.7 492.4h131M308.7 492.4h131M439.7 492.4h131M570.7 492.4h131M46.7 492.4h131m-131 40h131M177.7 492.4h131m-131 40h131M308.7 492.4h131m-131 40h131M439.7 492.4h131m-131 40h131M570.7 492.4h131m-131 40h131M46.7 532.4h131M177.7 532.4h131M308.7 532.4h131M439.7 532.4h131M570.7 532.4h131M177.7 452.4v40M177.7 452.4v40m131-40v40M308.7 452.4v40m131-40v40M439.7 452.4v40m131-40v40M570.7 452.4v40M177.7 492.4v40M177.7 492.4v40m131-40v40M308.7 492.4v40m131-40v40M439.7 492.4v40m131-40v40M570.7 492.4v40M177.7 532.4v40M177.7 532.4v40m131-40v40M308.7 532.4v40m131-40v40M439.7 532.4v40m131-40v40M570.7 532.4v40M46.7 452.4h655v120h-655z" stroke="#000" fill="none"/><use xlink:href="#i" transform="matrix(1,0,0,1,51.70616741946827,457.39911303400186) translate(27.549999999999997 18.6)"/><use xlink:href="#b" transform="matrix(1,0,0,1,51.70616741946827,457.39911303400186) translate(78.45 18.6)"/><use xlink:href="#j" transform="matrix(1,0,0,1,182.70616741946827,457.39911303400186) translate(41.525 18.6)"/><use xlink:href="#a" transform="matrix(1,0,0,1,313.7061674194683,457.39911303400186) translate(31.549999999999997 18.6)"/><use xlink:href="#b" transform="matrix(1,0,0,1,313.7061674194683,457.39911303400186) translate(74.45 18.6)"/><use xlink:href="#f" transform="matrix(1,0,0,1,51.70616741946827,497.39911303400186) translate(55.5 18.6)"/><use xlink:href="#k" transform="matrix(1,0,0,1,182.70616741946827,497.39911303400186) translate(20.5 18.6)"/><use xlink:href="#f" transform="matrix(1,0,0,1,313.7061674194683,497.39911303400186) translate(55.5 18.6)"/><use xlink:href="#l" transform="matrix(1,0,0,1,51.70616741946827,537.3991130340019) translate(55.5 18.6)"/><use xlink:href="#k" transform="matrix(1,0,0,1,182.70616741946827,537.3991130340019) translate(20.5 18.6)"/><use xlink:href="#f" transform="matrix(1,0,0,1,313.7061674194683,537.3991130340019) translate(55.5 18.6)"/><use xlink:href="#m" transform="matrix(1,0,0,1,444.7061674194683,457.39911303400186) translate(25.549999999999997 18.6)"/><use xlink:href="#n" transform="matrix(1,0,0,1,575.7061674194683,457.39911303400186) translate(15.624999999999993 18.6)"/><use xlink:href="#o" transform="matrix(1,0,0,1,444.7061674194683,497.39911303400186) translate(25.025 18.6)"/><use xlink:href="#p" transform="matrix(1,0,0,1,444.7061674194683,497.39911303400186) translate(66.975 18.6)"/><use xlink:href="#q" transform="matrix(1,0,0,1,575.7061674194683,497.39911303400186) translate(45.5 18.6)"/><use xlink:href="#r" transform="matrix(1,0,0,1,444.7061674194683,537.3991130340019) translate(30.525 18.6)"/><use xlink:href="#h" transform="matrix(1,0,0,1,575.7061674194683,537.3991130340019) translate(45.5 18.6)"/><path d="M24.2 670.4h175v40h-175z" fill="#b2b2b2"/><path d="M198.87 670.4h175v40h-175z" fill="#b2b2b2"/><path d="M373.54 670.4h175v40h-175z" fill="#b2b2b2"/><path d="M548.2 670.4h176v40h-176z" fill="#b2b2b2"/><path d="M24.2 710.4h175v40h-175z" fill="#fff"/><path d="M198.87 710.4h175v40h-175z" fill="#fff"/><path d="M373.54 710.4h175v40h-175z" fill="#fff"/><path d="M548.2 710.4h176v40h-176zM24.2 750.4h175v40h-175z" fill="#fff"/><path d="M198.87 750.4h175v40h-175z" fill="#fff"/><path d="M373.54 750.4h175v40h-175z" fill="#fff"/><path d="M548.2 750.4h176v40h-176zM24.2 790.4h175v40h-175z" fill="#fff"/><path d="M198.87 790.4h175v40h-175z" fill="#fff"/><path d="M373.54 790.4h175v40h-175z" fill="#fff"/><path d="M548.2 790.4h176v40h-176zM24.2 830.4h175v40h-175z" fill="#fff"/><path d="M198.87 830.4h175v40h-175z" fill="#fff"/><path d="M373.54 830.4h175v40h-175z" fill="#fff"/><path d="M548.2 830.4h176v40h-176zM24.2 870.4h175v40h-175z" fill="#fff"/><path d="M198.87 870.4h175v40h-175z" fill="#fff"/><path d="M373.54 870.4h175v40h-175z" fill="#fff"/><path d="M548.2 870.4h176v40h-176z" fill="#fff"/><path d="M24.2 710.4h175M198.87 710.4h175M373.54 710.4h175M548.2 710.4h176M24.2 710.4h175m-175 40h175M198.87 710.4h175m-175 40h175M373.54 710.4h175m-175 40h175M548.2 710.4h176m-176 40h176M24.2 750.4h175m-175 40h175M198.87 750.4h175m-175 40h175M373.54 750.4h175m-175 40h175M548.2 750.4h176m-176 40h176M24.2 790.4h175m-175 40h175M198.87 790.4h175m-175 40h175M373.54 790.4h175m-175 40h175M548.2 790.4h176m-176 40h176M24.2 830.4h175m-175 40h175M198.87 830.4h175m-175 40h175M373.54 830.4h175m-175 40h175M548.2 830.4h176m-176 40h176M24.2 870.4h175M198.87 870.4h175M373.54 870.4h175M548.2 870.4h176M199.2 670.4v40M198.87 670.4v40m175-40v40M373.54 670.4v40m175-40v40M548.2 670.4v40M199.2 710.4v40M198.87 710.4v40m175-40v40M373.54 710.4v40m175-40v40M548.2 710.4v40M199.2 750.4v40M198.87 750.4v40m175-40v40M373.54 750.4v40m175-40v40M548.2 750.4v40M199.2 790.4v40M198.87 790.4v40m175-40v40M373.54 790.4v40m175-40v40M548.2 790.4v40M199.2 830.4v40M198.87 830.4v40m175-40v40M373.54 830.4v40m175-40v40M548.2 830.4v40M199.2 870.4v40M198.87 870.4v40m175-40v40M373.54 870.4v40m175-40v40M548.2 870.4v40M24.2 670.4h700v240h-700z" stroke="#000" fill="none"/><use xlink:href="#s" transform="matrix(1,0,0,1,29.206167419468272,675.399113034002) translate(75 18.6)"/><use xlink:href="#i" transform="matrix(1,0,0,1,203.87283408613493,675.399113034002) translate(49.55 18.6)"/><use xlink:href="#b" transform="matrix(1,0,0,1,203.87283408613493,675.399113034002) translate(100.45 18.6)"/><use xlink:href="#t" transform="matrix(1,0,0,1,378.53950075280164,675.399113034002) translate(41.525 18.6)"/><use xlink:href="#b" transform="matrix(1,0,0,1,378.53950075280164,675.399113034002) translate(108.475 18.6)"/><use xlink:href="#f" transform="matrix(1,0,0,1,29.206167419468272,715.399113034002) translate(77.5 18.6)"/><use xlink:href="#f" transform="matrix(1,0,0,1,203.87283408613493,715.399113034002) translate(77.5 18.6)"/><use xlink:href="#u" transform="matrix(1,0,0,1,378.53950075280164,715.399113034002) translate(72.5 18.6)"/><use xlink:href="#l" transform="matrix(1,0,0,1,29.206167419468272,755.399113034002) translate(77.5 18.6)"/><use xlink:href="#f" transform="matrix(1,0,0,1,203.87283408613493,755.399113034002) translate(77.5 18.6)"/><use xlink:href="#v" transform="matrix(1,0,0,1,378.53950075280164,755.399113034002) translate(72.5 18.6)"/><use xlink:href="#w" transform="matrix(1,0,0,1,553.2061674194683,675.399113034002) translate(62.55 18.6)"/><use xlink:href="#x" transform="matrix(1,0,0,1,553.2061674194683,715.399113034002) translate(68 18.6)"/><use xlink:href="#y" transform="matrix(1,0,0,1,553.2061674194683,755.399113034002) translate(73 18.6)"/><use xlink:href="#z" transform="matrix(1,0,0,1,29.206167419468272,795.399113034002) translate(77.5 18.6)"/><use xlink:href="#f" transform="matrix(1,0,0,1,203.87283408613493,795.399113034002) translate(77.5 18.6)"/><use xlink:href="#A" transform="matrix(1,0,0,1,378.53950075280164,795.399113034002) translate(72.5 18.6)"/><use xlink:href="#B" transform="matrix(1,0,0,1,553.2061674194683,795.399113034002) translate(68 18.6)"/><use xlink:href="#C" transform="matrix(1,0,0,1,29.206167419468272,835.399113034002) translate(77.5 18.6)"/><use xlink:href="#l" transform="matrix(1,0,0,1,203.87283408613493,835.399113034002) translate(77.5 18.6)"/><use xlink:href="#D" transform="matrix(1,0,0,1,378.53950075280164,835.399113034002) translate(72.5 18.6)"/><use xlink:href="#E" transform="matrix(1,0,0,1,553.2061674194683,835.399113034002) translate(68 18.6)"/><use xlink:href="#C" transform="matrix(1,0,0,1,29.206167419468272,875.399113034002) translate(77.5 18.6)"/><use xlink:href="#l" transform="matrix(1,0,0,1,203.87283408613493,875.399113034002) translate(77.5 18.6)"/><use xlink:href="#u" transform="matrix(1,0,0,1,378.53950075280164,875.399113034002) translate(72.5 18.6)"/><use xlink:href="#x" transform="matrix(1,0,0,1,553.2061674194683,875.399113034002) translate(68 18.6)"/><path d="M764.2 510.4h133.34V650H764.2z" stroke="#000" stroke-width="3" fill="#a3d977"/><use xlink:href="#F" transform="matrix(1,0,0,1,769.2061674194687,515.3991130340021) translate(39.525 14.600000000000003)"/><use xlink:href="#G" transform="matrix(1,0,0,1,769.2061674194687,515.3991130340021) translate(42.525 36.2)"/><use xlink:href="#H" transform="matrix(1,0,0,1,769.2061674194687,515.3991130340021) translate(45.025 57.800000000000004)"/><use xlink:href="#I" transform="matrix(1,0,0,1,769.2061674194687,515.3991130340021) translate(45.05 79.40000000000002)"/><use xlink:href="#J" transform="matrix(1,0,0,1,769.2061674194687,515.3991130340021) translate(50.05 79.40000000000002)"/><use xlink:href="#K" transform="matrix(1,0,0,1,769.2061674194687,515.3991130340021) translate(45 101.00000000000001)"/><use xlink:href="#L" transform="matrix(1,0,0,1,769.2061674194687,515.3991130340021) translate(54.5 122.60000000000001)"/><path d="M724.7 692.4h106.17v-22.66" fill="none"/><path d="M724.7 692.4h10.74m10.74 0h21.47m10.74 0h21.46m10.73 0h20.27v-1.2m0-10.73v-10.73" stroke="#000" stroke-width="2" fill="none"/><path d="M724.7 693.4h-.5v-2h.5zM835.5 669h-9.26l4.63-14.26z"/><path d="M836.88 670h-12.02l6-18.5zm-9.27-2h6.53l-3.26-10.03z"/><path d="M830.87 508.9v-22.5H720.44" fill="none"/><path d="M830.87 508.9v-11.08m0-11.08v-.34h-21.8m-11.08 0h-22.17m-11.08 0H742.6m-11.08 0h-11.08" stroke="#000" stroke-width="2" fill="none"/><path d="M831.87 510.4h-2v-1.5h2zM719.7 491.03l-14.26-4.63 14.27-4.64z"/><path d="M720.7 492.4l-18.5-6 18.5-6zm-12.02-6l10.03 3.26v-6.52z"/><path d="M904.2 530.4h164.53v118H904.2z" stroke="#000" stroke-opacity="0" stroke-width="2" fill="#fff" fill-opacity="0"/><use xlink:href="#M" transform="matrix(1,0,0,1,909.2061674194684,535.399113034002) translate(0 14.4)"/><use xlink:href="#N" transform="matrix(1,0,0,1,909.2061674194684,535.399113034002) translate(43.9 14.4)"/><use xlink:href="#O" transform="matrix(1,0,0,1,909.2061674194684,535.399113034002) translate(64.85 14.4)"/><use xlink:href="#P" transform="matrix(1,0,0,1,909.2061674194684,535.399113034002) translate(114.8 14.4)"/><use xlink:href="#Q" transform="matrix(1,0,0,1,909.2061674194684,535.399113034002) translate(0 36)"/><use xlink:href="#R" transform="matrix(1,0,0,1,909.2061674194684,535.399113034002) translate(37.4052734375 36)"/><use xlink:href="#S" transform="matrix(1,0,0,1,909.2061674194684,535.399113034002) translate(0 57.6)"/><use xlink:href="#T" transform="matrix(1,0,0,1,909.2061674194684,535.399113034002) translate(71.75 57.6)"/><use xlink:href="#U" transform="matrix(1,0,0,1,909.2061674194684,535.399113034002) translate(91.75 57.6)"/><use xlink:href="#V" transform="matrix(1,0,0,1,909.2061674194684,535.399113034002) translate(0 79.20000000000002)"/><use xlink:href="#W" transform="matrix(1,0,0,1,909.2061674194684,535.399113034002) translate(53.25 79.20000000000002)"/><path d="M246.2 174.4h273v60h-273z" stroke="#000" stroke-opacity="0" stroke-width="2" fill="#fff" fill-opacity="0"/><g><use xlink:href="#X" transform="matrix(1,0,0,1,251.2061674194683,179.39911303400197) translate(21.777777777777786 29.444444444444443)"/><use xlink:href="#Y" transform="matrix(1,0,0,1,251.2061674194683,179.39911303400197) translate(110.60493827160494 29.444444444444443)"/><use xlink:href="#Z" transform="matrix(1,0,0,1,251.2061674194683,179.39911303400197) translate(180.85185185185185 29.444444444444443)"/></g><path d="M246.7 392.4h273v60h-273z" stroke="#000" stroke-opacity="0" stroke-width="2" fill="#fff" fill-opacity="0"/><g><use xlink:href="#aa" transform="matrix(1,0,0,1,251.7061674194683,397.39911303400197) translate(84.61728395061729 29.444444444444443)"/></g><path d="M247.2 610.4h272v60h-272z" stroke="#000" stroke-opacity="0" stroke-width="2" fill="#fff" fill-opacity="0"/><g><use xlink:href="#ab" transform="matrix(1,0,0,1,252.2061674194683,615.3991130340021) translate(33.00617283950618 29.444444444444443)"/><use xlink:href="#ac" transform="matrix(1,0,0,1,252.2061674194683,615.3991130340021) translate(122.45061728395062 29.444444444444443)"/></g><path d="M702.17 276.4H835.5V416H702.17z" stroke="#000" stroke-width="3" fill="#a3d977"/><g><use xlink:href="#F" transform="matrix(1,0,0,1,707.1679876192464,281.3991130340021) translate(39.525 14.600000000000003)"/><use xlink:href="#ad" transform="matrix(1,0,0,1,707.1679876192464,281.3991130340021) translate(43.525 36.2)"/><use xlink:href="#ae" transform="matrix(1,0,0,1,707.1679876192464,281.3991130340021) translate(44.525 57.800000000000004)"/><use xlink:href="#I" transform="matrix(1,0,0,1,707.1679876192464,281.3991130340021) translate(45.05 79.40000000000002)"/><use xlink:href="#J" transform="matrix(1,0,0,1,707.1679876192464,281.3991130340021) translate(50.05 79.40000000000002)"/><use xlink:href="#K" transform="matrix(1,0,0,1,707.1679876192464,281.3991130340021) translate(45 101.00000000000001)"/><use xlink:href="#L" transform="matrix(1,0,0,1,707.1679876192464,281.3991130340021) translate(54.5 122.60000000000001)"/></g><path d="M702.2 461.07h66.63v-25.33" fill="none"/><path d="M702.2 461.07h10.22m10.22 0h20.44m10.2 0h15.55v-4.9m0-10.22v-10.2" stroke="#000" stroke-width="2" fill="none"/><path d="M702.2 462.07h-.5v-2h.5zM773.47 435h-9.27l4.63-14.26z"/><path d="M774.85 436h-12.03l6-18.5zm-9.27-2h6.5l-3.25-10.03z"/><path d="M768.83 274.9v-23.83h-143.9" fill="none"/><path d="M768.83 274.9v-9.32m0-9.32v-5.2H755.4m-9.32 0h-18.64m-9.32 0H699.5m-9.33 0h-18.64m-9.32 0H643.6m-9.32 0h-9.32" stroke="#000" stroke-width="2" fill="none"/><path d="M769.83 276.4h-2v-1.5h2zM624.2 255.7l-14.26-4.63 14.27-4.64z"/><path d="M625.2 257.08l-18.5-6 18.5-6.03zm-12.02-6l10.03 3.24v-6.5z"/><path d="M844.17 287.4h185v118h-185z" stroke="#000" stroke-opacity="0" stroke-width="2" fill="#fff" fill-opacity="0"/><g><use xlink:href="#M" transform="matrix(1,0,0,1,849.1679876192463,292.399113034002) translate(0 14.4)"/><use xlink:href="#af" transform="matrix(1,0,0,1,849.1679876192463,292.399113034002) translate(43.9 14.4)"/><use xlink:href="#O" transform="matrix(1,0,0,1,849.1679876192463,292.399113034002) translate(64.85 14.4)"/><use xlink:href="#P" transform="matrix(1,0,0,1,849.1679876192463,292.399113034002) translate(114.8 14.4)"/><use xlink:href="#ag" transform="matrix(1,0,0,1,849.1679876192463,292.399113034002) translate(0 36)"/><use xlink:href="#R" transform="matrix(1,0,0,1,849.1679876192463,292.399113034002) translate(37.4052734375 36)"/><use xlink:href="#S" transform="matrix(1,0,0,1,849.1679876192463,292.399113034002) translate(0 57.6)"/><use xlink:href="#T" transform="matrix(1,0,0,1,849.1679876192463,292.399113034002) translate(71.75 57.6)"/><use xlink:href="#U" transform="matrix(1,0,0,1,849.1679876192463,292.399113034002) translate(91.75 57.6)"/><use xlink:href="#ah" transform="matrix(1,0,0,1,849.1679876192463,292.399113034002) translate(0 79.20000000000002)"/><use xlink:href="#ai" transform="matrix(1,0,0,1,849.1679876192463,292.399113034002) translate(89.15 79.20000000000002)"/><use xlink:href="#W" transform="matrix(1,0,0,1,849.1679876192463,292.399113034002) translate(136.05 79.20000000000002)"/></g><path d="M30.94 4.84h1007.3V174H30.94z" stroke="#000" stroke-opacity="0" stroke-width="2" fill="#fff" fill-opacity="0"/><g><use xlink:href="#aj" transform="matrix(1,0,0,1,35.93638845707005,9.844926113096037) translate(28.69482965371384 53.26123478764008)"/><use xlink:href="#ak" transform="matrix(1,0,0,1,35.93638845707005,9.844926113096037) translate(89.45124616402055 53.26123478764008)"/><use xlink:href="#al" transform="matrix(1,0,0,1,35.93638845707005,9.844926113096037) translate(160.6803457158349 53.26123478764008)"/><use xlink:href="#am" transform="matrix(1,0,0,1,35.93638845707005,9.844926113096037) translate(260.0594230884393 53.26123478764008)"/><use xlink:href="#an" transform="matrix(1,0,0,1,35.93638845707005,9.844926113096037) translate(383.28056610873125 53.26123478764008)"/><use xlink:href="#ao" transform="matrix(1,0,0,1,35.93638845707005,9.844926113096037) translate(509.39840869369556 53.26123478764008)"/><use xlink:href="#ap" transform="matrix(1,0,0,1,35.93638845707005,9.844926113096037) translate(613.3082212828388 53.26123478764008)"/><use xlink:href="#aq" transform="matrix(1,0,0,1,35.93638845707005,9.844926113096037) translate(651.8566077973242 53.26123478764008)"/><use xlink:href="#ar" transform="matrix(1,0,0,1,35.93638845707005,9.844926113096037) translate(782.2080882075788 53.26123478764008)"/><use xlink:href="#as" transform="matrix(1,0,0,1,35.93638845707005,9.844926113096037) translate(898.0760707944719 53.26123478764008)"/><use xlink:href="#at" transform="matrix(1,0,0,1,35.93638845707005,9.844926113096037) translate(927.7858099193161 53.26123478764008)"/><use xlink:href="#au" transform="matrix(1,0,0,1,35.93638845707005,9.844926113096037) translate(20.821748785630007 85.34775304247198)"/><use xlink:href="#av" transform="matrix(1,0,0,1,35.93638845707005,9.844926113096037) translate(92.12512268525647 85.34775304247198)"/><use xlink:href="#aw" transform="matrix(1,0,0,1,35.93638845707005,9.844926113096037) translate(112.84766572483541 85.34775304247198)"/><use xlink:href="#ax" transform="matrix(1,0,0,1,35.93638845707005,9.844926113096037) translate(139.5121565893832 85.34775304247198)"/><use xlink:href="#ay" transform="matrix(1,0,0,1,35.93638845707005,9.844926113096037) translate(272.98315960774653 85.34775304247198)"/><use xlink:href="#az" transform="matrix(1,0,0,1,35.93638845707005,9.844926113096037) translate(317.54776829501304 85.34775304247198)"/><use xlink:href="#aA" transform="matrix(1,0,0,1,35.93638845707005,9.844926113096037) translate(440.5460882718687 85.34775304247198)"/><use xlink:href="#aB" transform="matrix(1,0,0,1,35.93638845707005,9.844926113096037) translate(513.3349491277374 85.34775304247198)"/><use xlink:href="#aC" transform="matrix(1,0,0,1,35.93638845707005,9.844926113096037) translate(541.4849269485275 85.34775304247198)"/><use xlink:href="#aD" transform="matrix(1,0,0,1,35.93638845707005,9.844926113096037) translate(591.9914834607629 85.34775304247198)"/><use xlink:href="#ap" transform="matrix(1,0,0,1,35.93638845707005,9.844926113096037) translate(661.6608217085229 85.34775304247198)"/><use xlink:href="#aE" transform="matrix(1,0,0,1,35.93638845707005,9.844926113096037) translate(700.2092082230084 85.34775304247198)"/><use xlink:href="#aF" transform="matrix(1,0,0,1,35.93638845707005,9.844926113096037) translate(765.5706342976661 85.34775304247198)"/><use xlink:href="#aB" transform="matrix(1,0,0,1,35.93638845707005,9.844926113096037) translate(815.9286421142773 85.34775304247198)"/><use xlink:href="#ay" transform="matrix(1,0,0,1,35.93638845707005,9.844926113096037) translate(844.0786199350673 85.34775304247198)"/><use xlink:href="#aG" transform="matrix(1,0,0,1,35.93638845707005,9.844926113096037) translate(888.6432286223338 85.34775304247198)"/><use xlink:href="#aH" transform="matrix(1,0,0,1,35.93638845707005,9.844926113096037) translate(27.357891393095827 117.4342712973039)"/><use xlink:href="#aI" transform="matrix(1,0,0,1,35.93638845707005,9.844926113096037) translate(104.00901833519427 117.4342712973039)"/><use xlink:href="#aw" transform="matrix(1,0,0,1,35.93638845707005,9.844926113096037) translate(164.76543484550098 117.4342712973039)"/><use xlink:href="#aJ" transform="matrix(1,0,0,1,35.93638845707005,9.844926113096037) translate(191.4299257100488 117.4342712973039)"/><use xlink:href="#aK" transform="matrix(1,0,0,1,35.93638845707005,9.844926113096037) translate(299.6476504722944 117.4342712973039)"/><use xlink:href="#av" transform="matrix(1,0,0,1,35.93638845707005,9.844926113096037) translate(408.0881982779763 117.4342712973039)"/><use xlink:href="#aL" transform="matrix(1,0,0,1,35.93638845707005,9.844926113096037) translate(428.81074131755526 117.4342712973039)"/><use xlink:href="#aM" transform="matrix(1,0,0,1,35.93638845707005,9.844926113096037) translate(479.3172978297907 117.4342712973039)"/><use xlink:href="#ao" transform="matrix(1,0,0,1,35.93638845707005,9.844926113096037) translate(560.9448060753004 117.4342712973039)"/><use xlink:href="#ap" transform="matrix(1,0,0,1,35.93638845707005,9.844926113096037) translate(664.8546186644437 117.4342712973039)"/><use xlink:href="#aC" transform="matrix(1,0,0,1,35.93638845707005,9.844926113096037) translate(703.4030051789291 117.4342712973039)"/><use xlink:href="#aN" transform="matrix(1,0,0,1,35.93638845707005,9.844926113096037) translate(753.9095616911645 117.4342712973039)"/><use xlink:href="#aB" transform="matrix(1,0,0,1,35.93638845707005,9.844926113096037) translate(825.138661242979 117.4342712973039)"/><use xlink:href="#aO" transform="matrix(1,0,0,1,35.93638845707005,9.844926113096037) translate(853.2886390637689 117.4342712973039)"/><use xlink:href="#aP" transform="matrix(1,0,0,1,35.93638845707005,9.844926113096037) translate(875.5709434074022 117.4342712973039)"/></g><defs><path d="M232-93c-1 65-40 97-104 97C67 4 28-28 28-90v-158h33c8 89-33 224 67 224 102 0 64-133 71-224h33v155" id="aQ"/><path d="M135-143c-3-34-86-38-87 0 15 53 115 12 119 90S17 21 10-45l28-5c4 36 97 45 98 0-10-56-113-15-118-90-4-57 82-63 122-42 12 7 21 19 24 35" id="aR"/><path d="M100-194c63 0 86 42 84 106H49c0 40 14 67 53 68 26 1 43-12 49-29l28 8c-11 28-37 45-77 45C44 4 14-33 15-96c1-61 26-98 85-98zm52 81c6-60-76-77-97-28-3 7-6 17-6 28h103" id="aS"/><path d="M114-163C36-179 61-72 57 0H25l-1-190h30c1 12-1 29 2 39 6-27 23-49 58-41v29" id="aT"/><g id="a"><use transform="matrix(0.05,0,0,0.05,0,0)" xlink:href="#aQ"/><use transform="matrix(0.05,0,0,0.05,12.950000000000001,0)" xlink:href="#aR"/><use transform="matrix(0.05,0,0,0.05,21.950000000000003,0)" xlink:href="#aS"/><use transform="matrix(0.05,0,0,0.05,31.950000000000003,0)" xlink:href="#aT"/></g><path d="M33 0v-248h34V0H33" id="aU"/><path d="M85-194c31 0 48 13 60 33l-1-100h32l1 261h-30c-2-10 0-23-3-31C134-8 116 4 85 4 32 4 16-35 15-94c0-66 23-100 70-100zm9 24c-40 0-46 34-46 75 0 40 6 74 45 74 42 0 51-32 51-76 0-42-9-74-50-73" id="aV"/><g id="b"><use transform="matrix(0.05,0,0,0.05,0,0)" xlink:href="#aU"/><use transform="matrix(0.05,0,0,0.05,5,0)" xlink:href="#aV"/></g><path d="M209 0H11v-25l151-195H24v-28h176v25L50-27h159V0" id="aW"/><path d="M24-231v-30h32v30H24zM24 0v-190h32V0H24" id="aX"/><path d="M115-194c55 1 70 41 70 98S169 2 115 4C84 4 66-9 55-30l1 105H24l-1-265h31l2 30c10-21 28-34 59-34zm-8 174c40 0 45-34 45-75s-6-73-45-74c-42 0-51 32-51 76 0 43 10 73 51 73" id="aY"/><g id="c"><use transform="matrix(0.05,0,0,0.05,0,0)" xlink:href="#aW"/><use transform="matrix(0.05,0,0,0.05,10.950000000000001,0)" xlink:href="#aX"/><use transform="matrix(0.05,0,0,0.05,14.9,0)" xlink:href="#aY"/></g><path d="M212-179c-10-28-35-45-73-45-59 0-87 40-87 99 0 60 29 101 89 101 43 0 62-24 78-52l27 14C228-24 195 4 139 4 59 4 22-46 18-125c-6-104 99-153 187-111 19 9 31 26 39 46" id="aZ"/><path d="M100-194c62-1 85 37 85 99 1 63-27 99-86 99S16-35 15-95c0-66 28-99 85-99zM99-20c44 1 53-31 53-75 0-43-8-75-51-75s-53 32-53 75 10 74 51 75" id="ba"/><g id="d"><use transform="matrix(0.05,0,0,0.05,0,0)" xlink:href="#aZ"/><use transform="matrix(0.05,0,0,0.05,12.950000000000001,0)" xlink:href="#ba"/><use transform="matrix(0.05,0,0,0.05,22.950000000000003,0)" xlink:href="#aV"/><use transform="matrix(0.05,0,0,0.05,32.95,0)" xlink:href="#aS"/></g><path d="M240 0l2-218c-23 76-54 145-80 218h-23L58-218 59 0H30v-248h44l77 211c21-75 51-140 76-211h43V0h-30" id="bb"/><path d="M141-36C126-15 110 5 73 4 37 3 15-17 15-53c-1-64 63-63 125-63 3-35-9-54-41-54-24 1-41 7-42 31l-33-3c5-37 33-52 76-52 45 0 72 20 72 64v82c-1 20 7 32 28 27v20c-31 9-61-2-59-35zM48-53c0 20 12 33 32 33 41-3 63-29 60-74-43 2-92-5-92 41" id="bc"/><path d="M141 0L90-78 38 0H4l68-98-65-92h35l48 74 47-74h35l-64 92 68 98h-35" id="bd"/><path d="M87 75C49 33 22-17 22-94c0-76 28-126 65-167h31c-38 41-64 92-64 168S80 34 118 75H87" id="be"/><path d="M185-189c-5-48-123-54-124 2 14 75 158 14 163 119 3 78-121 87-175 55-17-10-28-26-33-46l33-7c5 56 141 63 141-1 0-78-155-14-162-118-5-82 145-84 179-34 5 7 8 16 11 25" id="bf"/><path d="M84 4C-5 8 30-112 23-190h32v120c0 31 7 50 39 49 72-2 45-101 50-169h31l1 190h-30c-1-10 1-25-2-33-11 22-28 36-60 37" id="bg"/><path d="M210-169c-67 3-38 105-44 169h-31v-121c0-29-5-50-35-48C34-165 62-65 56 0H25l-1-190h30c1 10-1 24 2 32 10-44 99-50 107 0 11-21 27-35 58-36 85-2 47 119 55 194h-31v-121c0-29-5-49-35-48" id="bh"/><path d="M30-248c87 1 191-15 191 75 0 78-77 80-158 76V0H30v-248zm33 125c57 0 124 11 124-50 0-59-68-47-124-48v98" id="bi"/><path d="M96-169c-40 0-48 33-48 73s9 75 48 75c24 0 41-14 43-38l32 2c-6 37-31 61-74 61-59 0-76-41-82-99-10-93 101-131 147-64 4 7 5 14 7 22l-32 3c-4-21-16-35-41-35" id="bj"/><path d="M33-261c38 41 65 92 65 168S71 34 33 75H2C39 34 66-17 66-93S39-220 2-261h31" id="bk"/><g id="e"><use transform="matrix(0.05,0,0,0.05,0,0)" xlink:href="#bb"/><use transform="matrix(0.05,0,0,0.05,14.950000000000001,0)" xlink:href="#bc"/><use transform="matrix(0.05,0,0,0.05,24.950000000000003,0)" xlink:href="#bd"/><use transform="matrix(0.05,0,0,0.05,33.95,0)" xlink:href="#be"/><use transform="matrix(0.05,0,0,0.05,39.900000000000006,0)" xlink:href="#bf"/><use transform="matrix(0.05,0,0,0.05,51.900000000000006,0)" xlink:href="#bg"/><use transform="matrix(0.05,0,0,0.05,61.900000000000006,0)" xlink:href="#bh"/><use transform="matrix(0.05,0,0,0.05,76.85000000000001,0)" xlink:href="#be"/><use transform="matrix(0.05,0,0,0.05,82.80000000000001,0)" xlink:href="#bi"/><use transform="matrix(0.05,0,0,0.05,94.80000000000001,0)" xlink:href="#aT"/><use transform="matrix(0.05,0,0,0.05,100.75000000000001,0)" xlink:href="#aX"/><use transform="matrix(0.05,0,0,0.05,104.7,0)" xlink:href="#bj"/><use transform="matrix(0.05,0,0,0.05,113.7,0)" xlink:href="#aS"/><use transform="matrix(0.05,0,0,0.05,123.7,0)" xlink:href="#bk"/><use transform="matrix(0.05,0,0,0.05,129.65,0)" xlink:href="#bk"/></g><path d="M27 0v-27h64v-190l-56 39v-29l58-41h29v221h61V0H27" id="bl"/><use transform="matrix(0.05,0,0,0.05,0,0)" xlink:href="#bl" id="f"/><path d="M110-160c48 1 74 30 74 79 0 53-28 85-80 85-65 0-83-55-86-122-5-90 50-162 133-122 14 7 22 21 27 39l-31 6c-5-40-67-38-82-6-9 19-15 44-15 74 11-20 30-34 60-33zm-7 138c34 0 49-23 49-58s-16-56-50-56c-29 0-50 16-49 49 1 36 15 65 50 65" id="bm"/><path d="M101-251c68 0 85 55 85 127S166 4 100 4C33 4 14-52 14-124c0-73 17-127 87-127zm-1 229c47 0 54-49 54-102s-4-102-53-102c-51 0-55 48-55 102 0 53 5 102 54 102" id="bn"/><path d="M99-251c64 0 84 50 84 122C183-37 130 33 47-8c-14-7-20-23-25-40l30-5c6 39 69 39 84 7 9-19 16-44 16-74-10 22-31 35-62 35-49 0-73-33-73-83 0-54 28-83 82-83zm-1 141c31-1 51-18 51-49 0-36-14-67-51-67-34 0-49 23-49 58 0 34 15 58 49 58" id="bo"/><g id="g"><use transform="matrix(0.05,0,0,0.05,0,0)" xlink:href="#bm"/><use transform="matrix(0.05,0,0,0.05,10,0)" xlink:href="#bn"/><use transform="matrix(0.05,0,0,0.05,20,0)" xlink:href="#bn"/><use transform="matrix(0.05,0,0,0.05,30,0)" xlink:href="#bo"/><use transform="matrix(0.05,0,0,0.05,40,0)" xlink:href="#bl"/></g><path d="M194-70c0 46-34 64-81 66v29H91V-4C42-5 12-27 4-67l30-6c5 28 25 41 57 43v-87c-38-9-76-20-76-67 1-42 33-58 76-59v-23h22v23c45 0 67 20 76 56l-31 6c-5-23-18-35-45-37v78c41 10 81 20 81 70zm-81 41c51 7 71-66 19-77-6-2-12-4-19-6v83zM91-219c-47-6-63 57-18 69 6 2 12 3 18 5v-74" id="bp"/><g id="h"><use transform="matrix(0.05,0,0,0.05,0,0)" xlink:href="#bp"/><use transform="matrix(0.05,0,0,0.05,10,0)" xlink:href="#bm"/><use transform="matrix(0.05,0,0,0.05,20,0)" xlink:href="#bn"/></g><path d="M140-251c81 0 123 46 123 126C263-46 219 4 140 4 59 4 17-45 17-125s42-126 123-126zm0 227c63 0 89-41 89-101s-29-99-89-99c-61 0-89 39-89 99S79-25 140-24" id="bq"/><g id="i"><use transform="matrix(0.05,0,0,0.05,0,0)" xlink:href="#bq"/><use transform="matrix(0.05,0,0,0.05,14,0)" xlink:href="#aT"/><use transform="matrix(0.05,0,0,0.05,19.95,0)" xlink:href="#aV"/><use transform="matrix(0.05,0,0,0.05,29.950000000000003,0)" xlink:href="#aS"/><use transform="matrix(0.05,0,0,0.05,39.95,0)" xlink:href="#aT"/></g><path d="M30-248c118-7 216 8 213 122C240-48 200 0 122 0H30v-248zM63-27c89 8 146-16 146-99s-60-101-146-95v194" id="br"/><path d="M59-47c-2 24 18 29 38 22v24C64 9 27 4 27-40v-127H5v-23h24l9-43h21v43h35v23H59v120" id="bs"/><g id="j"><use transform="matrix(0.05,0,0,0.05,0,0)" xlink:href="#br"/><use transform="matrix(0.05,0,0,0.05,12.950000000000001,0)" xlink:href="#bc"/><use transform="matrix(0.05,0,0,0.05,22.950000000000003,0)" xlink:href="#bs"/><use transform="matrix(0.05,0,0,0.05,27.950000000000003,0)" xlink:href="#aS"/></g><path d="M101-251c82-7 93 87 43 132L82-64C71-53 59-42 53-27h129V0H18c2-99 128-94 128-182 0-28-16-43-45-43s-46 15-49 41l-32-3c6-41 34-60 81-64" id="bt"/><path d="M0 4l72-265h28L28 4H0" id="bu"/><path d="M134-131c28 9 52 24 51 62-1 50-34 73-85 73S17-19 16-69c0-36 21-54 49-61-75-25-45-126 34-121 46 3 78 18 79 63 0 33-17 51-44 57zm-34-11c31 1 46-15 46-44 0-28-17-43-47-42-29 0-46 13-45 42 1 28 16 44 46 44zm1 122c35 0 51-18 51-52 0-30-18-46-53-46-33 0-51 17-51 47 0 34 19 51 53 51" id="bv"/><g id="k"><use transform="matrix(0.05,0,0,0.05,0,0)" xlink:href="#bl"/><use transform="matrix(0.05,0,0,0.05,10,0)" xlink:href="#bt"/><use transform="matrix(0.05,0,0,0.05,20,0)" xlink:href="#bu"/><use transform="matrix(0.05,0,0,0.05,25,0)" xlink:href="#bt"/><use transform="matrix(0.05,0,0,0.05,35,0)" xlink:href="#bu"/><use transform="matrix(0.05,0,0,0.05,40,0)" xlink:href="#bt"/><use transform="matrix(0.05,0,0,0.05,50,0)" xlink:href="#bn"/><use transform="matrix(0.05,0,0,0.05,60,0)" xlink:href="#bl"/><use transform="matrix(0.05,0,0,0.05,70,0)" xlink:href="#bv"/></g><use transform="matrix(0.05,0,0,0.05,0,0)" xlink:href="#bt" id="l"/><path d="M106-169C34-169 62-67 57 0H25v-261h32l-1 103c12-21 28-36 61-36 89 0 53 116 60 194h-32v-121c2-32-8-49-39-48" id="bw"/><path d="M117-194c89-4 53 116 60 194h-32v-121c0-31-8-49-39-48C34-167 62-67 57 0H25l-1-190h30c1 10-1 24 2 32 11-22 29-35 61-36" id="bx"/><path d="M177-190C167-65 218 103 67 71c-23-6-38-20-44-43l32-5c15 47 100 32 89-28v-30C133-14 115 1 83 1 29 1 15-40 15-95c0-56 16-97 71-98 29-1 48 16 59 35 1-10 0-23 2-32h30zM94-22c36 0 50-32 50-73 0-42-14-75-50-75-39 0-46 34-46 75s6 73 46 73" id="by"/><g id="m"><use transform="matrix(0.05,0,0,0.05,0,0)" xlink:href="#bf"/><use transform="matrix(0.05,0,0,0.05,12,0)" xlink:href="#bw"/><use transform="matrix(0.05,0,0,0.05,22,0)" xlink:href="#aX"/><use transform="matrix(0.05,0,0,0.05,25.950000000000003,0)" xlink:href="#aY"/><use transform="matrix(0.05,0,0,0.05,35.95,0)" xlink:href="#aY"/><use transform="matrix(0.05,0,0,0.05,45.95,0)" xlink:href="#aX"/><use transform="matrix(0.05,0,0,0.05,49.900000000000006,0)" xlink:href="#bx"/><use transform="matrix(0.05,0,0,0.05,59.900000000000006,0)" xlink:href="#by"/></g><g id="n"><use transform="matrix(0.05,0,0,0.05,0,0)" xlink:href="#bf"/><use transform="matrix(0.05,0,0,0.05,12,0)" xlink:href="#bg"/><use transform="matrix(0.05,0,0,0.05,22,0)" xlink:href="#bh"/><use transform="matrix(0.05,0,0,0.05,36.95,0)" xlink:href="#be"/><use transform="matrix(0.05,0,0,0.05,42.900000000000006,0)" xlink:href="#bi"/><use transform="matrix(0.05,0,0,0.05,54.900000000000006,0)" xlink:href="#aT"/><use transform="matrix(0.05,0,0,0.05,60.85,0)" xlink:href="#aX"/><use transform="matrix(0.05,0,0,0.05,64.80000000000001,0)" xlink:href="#bj"/><use transform="matrix(0.05,0,0,0.05,73.80000000000001,0)" xlink:href="#aS"/><use transform="matrix(0.05,0,0,0.05,83.80000000000001,0)" xlink:href="#bk"/></g><path d="M190 0L58-211 59 0H30v-248h39L202-35l-2-213h31V0h-41" id="bz"/><g id="o"><use transform="matrix(0.05,0,0,0.05,0,0)" xlink:href="#bz"/><use transform="matrix(0.05,0,0,0.05,12.950000000000001,0)" xlink:href="#aS"/><use transform="matrix(0.05,0,0,0.05,22.950000000000003,0)" xlink:href="#bd"/><use transform="matrix(0.05,0,0,0.05,31.950000000000003,0)" xlink:href="#bs"/></g><path d="M179-190L93 31C79 59 56 82 12 73V49c39 6 53-20 64-50L1-190h34L92-34l54-156h33" id="bA"/><g id="p"><use transform="matrix(0.05,0,0,0.05,0,0)" xlink:href="#aV"/><use transform="matrix(0.05,0,0,0.05,10,0)" xlink:href="#bc"/><use transform="matrix(0.05,0,0,0.05,20,0)" xlink:href="#bA"/></g><path d="M126-127c33 6 58 20 58 59 0 88-139 92-164 29-3-8-5-16-6-25l32-3c6 27 21 44 54 44 32 0 52-15 52-46 0-38-36-46-79-43v-28c39 1 72-4 72-42 0-27-17-43-46-43-28 0-47 15-49 41l-32-3c6-42 35-63 81-64 48-1 79 21 79 65 0 36-21 52-52 59" id="bB"/><path d="M54-142c48-35 137-8 131 61C196 18 31 33 14-55l32-4c7 23 22 37 52 37 35-1 51-22 54-58 4-55-73-65-99-34H22l8-134h141v27H59" id="bC"/><g id="q"><use transform="matrix(0.05,0,0,0.05,0,0)" xlink:href="#bp"/><use transform="matrix(0.05,0,0,0.05,10,0)" xlink:href="#bB"/><use transform="matrix(0.05,0,0,0.05,20,0)" xlink:href="#bC"/></g><path d="M143 4C61 4 22-44 18-125c-5-107 100-154 193-111 17 8 29 25 37 43l-32 9c-13-25-37-40-76-40-61 0-88 39-88 99 0 61 29 100 91 101 35 0 62-11 79-27v-45h-74v-28h105v86C228-13 192 4 143 4" id="bD"/><g id="r"><use transform="matrix(0.05,0,0,0.05,0,0)" xlink:href="#bD"/><use transform="matrix(0.05,0,0,0.05,14,0)" xlink:href="#aT"/><use transform="matrix(0.05,0,0,0.05,19.95,0)" xlink:href="#ba"/><use transform="matrix(0.05,0,0,0.05,29.950000000000003,0)" xlink:href="#bg"/><use transform="matrix(0.05,0,0,0.05,39.95,0)" xlink:href="#bx"/><use transform="matrix(0.05,0,0,0.05,49.95,0)" xlink:href="#aV"/></g><g id="s"><use transform="matrix(0.05,0,0,0.05,0,0)" xlink:href="#aU"/><use transform="matrix(0.05,0,0,0.05,5,0)" xlink:href="#aV"/></g><g id="t"><use transform="matrix(0.05,0,0,0.05,0,0)" xlink:href="#bi"/><use transform="matrix(0.05,0,0,0.05,12,0)" xlink:href="#aT"/><use transform="matrix(0.05,0,0,0.05,17.95,0)" xlink:href="#ba"/><use transform="matrix(0.05,0,0,0.05,27.950000000000003,0)" xlink:href="#aV"/><use transform="matrix(0.05,0,0,0.05,37.95,0)" xlink:href="#bg"/><use transform="matrix(0.05,0,0,0.05,47.95,0)" xlink:href="#bj"/><use transform="matrix(0.05,0,0,0.05,56.95,0)" xlink:href="#bs"/></g><g id="u"><use transform="matrix(0.05,0,0,0.05,0,0)" xlink:href="#bt"/><use transform="matrix(0.05,0,0,0.05,10,0)" xlink:href="#bB"/></g><path d="M155-56V0h-30v-56H8v-25l114-167h33v167h35v25h-35zm-30-156c-27 46-58 90-88 131h88v-131" id="bE"/><g id="v"><use transform="matrix(0.05,0,0,0.05,0,0)" xlink:href="#bC"/><use transform="matrix(0.05,0,0,0.05,10,0)" xlink:href="#bE"/></g><g id="w"><use transform="matrix(0.05,0,0,0.05,0,0)" xlink:href="#bi"/><use transform="matrix(0.05,0,0,0.05,12,0)" xlink:href="#aT"/><use transform="matrix(0.05,0,0,0.05,17.95,0)" xlink:href="#aX"/><use transform="matrix(0.05,0,0,0.05,21.9,0)" xlink:href="#bj"/><use transform="matrix(0.05,0,0,0.05,30.899999999999995,0)" xlink:href="#aS"/></g><g id="x"><use transform="matrix(0.05,0,0,0.05,0,0)" xlink:href="#bp"/><use transform="matrix(0.05,0,0,0.05,10,0)" xlink:href="#bl"/><use transform="matrix(0.05,0,0,0.05,20,0)" xlink:href="#bn"/></g><g id="y"><use transform="matrix(0.05,0,0,0.05,0,0)" xlink:href="#bp"/><use transform="matrix(0.05,0,0,0.05,10,0)" xlink:href="#bC"/></g><use transform="matrix(0.05,0,0,0.05,0,0)" xlink:href="#bB" id="z"/><g id="A"><use transform="matrix(0.05,0,0,0.05,0,0)" xlink:href="#bE"/><use transform="matrix(0.05,0,0,0.05,10,0)" xlink:href="#bt"/></g><g id="B"><use transform="matrix(0.05,0,0,0.05,0,0)" xlink:href="#bp"/><use transform="matrix(0.05,0,0,0.05,10,0)" xlink:href="#bt"/><use transform="matrix(0.05,0,0,0.05,20,0)" xlink:href="#bn"/></g><use transform="matrix(0.05,0,0,0.05,0,0)" xlink:href="#bE" id="C"/><g id="D"><use transform="matrix(0.05,0,0,0.05,0,0)" xlink:href="#bt"/><use transform="matrix(0.05,0,0,0.05,10,0)" xlink:href="#bE"/></g><g id="E"><use transform="matrix(0.05,0,0,0.05,0,0)" xlink:href="#bp"/><use transform="matrix(0.05,0,0,0.05,10,0)" xlink:href="#bC"/><use transform="matrix(0.05,0,0,0.05,20,0)" xlink:href="#bn"/></g><g id="F"><use transform="matrix(0.05,0,0,0.05,0,0)" xlink:href="#bb"/><use transform="matrix(0.05,0,0,0.05,14.950000000000001,0)" xlink:href="#aS"/><use transform="matrix(0.05,0,0,0.05,24.950000000000003,0)" xlink:href="#bc"/><use transform="matrix(0.05,0,0,0.05,34.95,0)" xlink:href="#bx"/></g><path d="M169-182c-1-43-94-46-97-3 18 66 151 10 154 114 3 95-165 93-204 36-6-8-10-19-12-30l50-8c3 46 112 56 116 5-17-69-150-10-154-114-4-87 153-88 188-35 5 8 8 18 10 28" id="bF"/><path d="M85 4C-2 5 27-109 22-190h50c7 57-23 150 33 157 60-5 35-97 40-157h50l1 190h-47c-2-12 1-28-3-38-12 25-28 42-61 42" id="bG"/><path d="M220-157c-53 9-28 100-34 157h-49v-107c1-27-5-49-29-50C55-147 81-57 75 0H25l-1-190h47c2 12-1 28 3 38 10-53 101-56 108 0 13-22 24-43 59-42 82 1 51 116 57 194h-49v-107c-1-25-5-48-29-50" id="bH"/><g id="G"><use transform="matrix(0.05,0,0,0.05,0,0)" xlink:href="#bF"/><use transform="matrix(0.05,0,0,0.05,12,0)" xlink:href="#bG"/><use transform="matrix(0.05,0,0,0.05,22.950000000000003,0)" xlink:href="#bH"/></g><g id="H"><use transform="matrix(0.05,0,0,0.05,0,0)" xlink:href="#bb"/><use transform="matrix(0.05,0,0,0.05,14.950000000000001,0)" xlink:href="#bc"/><use transform="matrix(0.05,0,0,0.05,24.950000000000003,0)" xlink:href="#bd"/></g><g id="J"><use transform="matrix(0.05,0,0,0.05,0,0)" xlink:href="#bb"/><use transform="matrix(0.05,0,0,0.05,14.950000000000001,0)" xlink:href="#aX"/><use transform="matrix(0.05,0,0,0.05,18.900000000000002,0)" xlink:href="#bx"/></g><path d="M30 0v-248h33v221h125V0H30" id="bI"/><g id="K"><use transform="matrix(0.05,0,0,0.05,0,0)" xlink:href="#bI"/><use transform="matrix(0.05,0,0,0.05,10,0)" xlink:href="#bc"/><use transform="matrix(0.05,0,0,0.05,20,0)" xlink:href="#aR"/><use transform="matrix(0.05,0,0,0.05,29,0)" xlink:href="#bs"/></g><path d="M33 0v-38h34V0H33" id="bJ"/><g id="L"><use transform="matrix(0.05,0,0,0.05,0,0)" xlink:href="#bJ"/><use transform="matrix(0.05,0,0,0.05,5,0)" xlink:href="#bJ"/><use transform="matrix(0.05,0,0,0.05,10,0)" xlink:href="#bJ"/></g><path d="M115-3C79 11 28 4 28-45v-112H4v-33h27l15-45h31v45h36v33H77v99c-1 23 16 31 38 25v30" id="bK"/><path d="M185-48c-13 30-37 53-82 52C43 2 14-33 14-96s30-98 90-98c62 0 83 45 84 108H66c0 31 8 55 39 56 18 0 30-7 34-22zm-45-69c5-46-57-63-70-21-2 6-4 13-4 21h74" id="bL"/><path d="M135-194c53 0 70 44 70 98 0 56-19 98-73 100-31 1-45-17-59-34 3 33 2 69 2 105H25l-1-265h48c2 10 0 23 3 31 11-24 29-35 60-35zM114-30c33 0 39-31 40-66 0-38-9-64-40-64-56 0-55 130 0 130" id="bM"/><g id="M"><use transform="matrix(0.05,0,0,0.05,0,0)" xlink:href="#bF"/><use transform="matrix(0.05,0,0,0.05,12,0)" xlink:href="#bK"/><use transform="matrix(0.05,0,0,0.05,17.95,0)" xlink:href="#bL"/><use transform="matrix(0.05,0,0,0.05,27.950000000000003,0)" xlink:href="#bM"/></g><path d="M23 0v-37h61v-169l-59 37v-38l62-41h46v211h57V0H23" id="bN"/><path d="M35-132v-50h50v50H35zM35 0v-49h50V0H35" id="bO"/><g id="N"><use transform="matrix(0.05,0,0,0.05,0,0)" xlink:href="#bN"/><use transform="matrix(0.05,0,0,0.05,10,0)" xlink:href="#bO"/></g><path d="M205 0l-28-72H64L36 0H1l101-248h38L239 0h-34zm-38-99l-47-123c-12 45-31 82-46 123h93" id="bP"/><path d="M24 0v-261h32V0H24" id="bQ"/><g id="O"><use transform="matrix(0.05,0,0,0.05,0,0)" xlink:href="#bP"/><use transform="matrix(0.05,0,0,0.05,12,0)" xlink:href="#aY"/><use transform="matrix(0.05,0,0,0.05,22,0)" xlink:href="#aY"/><use transform="matrix(0.05,0,0,0.05,32,0)" xlink:href="#bQ"/><use transform="matrix(0.05,0,0,0.05,35.95,0)" xlink:href="#bA"/></g><g id="P"><use transform="matrix(0.05,0,0,0.05,0,0)" xlink:href="#bs"/><use transform="matrix(0.05,0,0,0.05,5,0)" xlink:href="#bw"/><use transform="matrix(0.05,0,0,0.05,15,0)" xlink:href="#aS"/></g><path d="M614-1226c-167 1-283 53-283 213 0 183 186 193 334 234 230 63 463 120 463 409 0 286-219 387-518 390C309 23 131-98 79-338l185-37c34 165 149 248 351 246 184-2 324-58 324-238 0-203-207-221-372-266-210-57-422-111-422-377 0-267 201-356 470-360 279-5 430 101 480 324l-188 33c-28-141-121-215-293-213" id="bR"/><path d="M528 20c-247 0-343-132-343-381v-721h180v686c-4 177 45 284 224 277 194-8 279-136 279-336v-627h181c3 360-6 732 6 1082H885c-4-54-7-126-8-185h-3C809-64 714 20 528 20" id="bS"/><path d="M904-1102c199 0 220 177 220 381V0H956v-686c-3-114 0-215-60-264-70-33-125-4-158 71-26 56-39 140-39 252V0H531v-686c-3-114-1-215-61-264-78-41-136 24-157 84-24 69-39 159-39 259V0H105c-3-360 6-732-6-1082h149c6 50 3 123 8 175 36-100 83-195 216-195 135 0 166 79 196 196 42-105 93-196 236-196" id="bT"/><g id="Q"><use transform="matrix(0.0087890625,0,0,0.0087890625,0,0)" xlink:href="#bR"/><use transform="matrix(0.0087890625,0,0,0.0087890625,10.8017578125,0)" xlink:href="#bS"/><use transform="matrix(0.0087890625,0,0,0.0087890625,21.603515625,0)" xlink:href="#bT"/></g><g id="R"><use transform="matrix(0.05,0,0,0.05,0,0)" xlink:href="#bc"/><use transform="matrix(0.05,0,0,0.05,10,0)" xlink:href="#by"/><use transform="matrix(0.05,0,0,0.05,20,0)" xlink:href="#by"/><use transform="matrix(0.05,0,0,0.05,30,0)" xlink:href="#aT"/><use transform="matrix(0.05,0,0,0.05,35.95,0)" xlink:href="#aS"/><use transform="matrix(0.05,0,0,0.05,45.95,0)" xlink:href="#by"/><use transform="matrix(0.05,0,0,0.05,55.95,0)" xlink:href="#bc"/><use transform="matrix(0.05,0,0,0.05,65.95,0)" xlink:href="#bs"/><use transform="matrix(0.05,0,0,0.05,70.95,0)" xlink:href="#aX"/><use transform="matrix(0.05,0,0,0.05,74.9,0)" xlink:href="#ba"/><use transform="matrix(0.05,0,0,0.05,84.9,0)" xlink:href="#bx"/></g><path d="M108 0H70L1-190h34L89-25l56-165h34" id="bU"/><g id="S"><use transform="matrix(0.05,0,0,0.05,0,0)" xlink:href="#aY"/><use transform="matrix(0.05,0,0,0.05,10,0)" xlink:href="#aT"/><use transform="matrix(0.05,0,0,0.05,15.949999999999998,0)" xlink:href="#aX"/><use transform="matrix(0.05,0,0,0.05,19.9,0)" xlink:href="#bh"/><use transform="matrix(0.05,0,0,0.05,34.85,0)" xlink:href="#aX"/><use transform="matrix(0.05,0,0,0.05,38.800000000000004,0)" xlink:href="#bs"/><use transform="matrix(0.05,0,0,0.05,43.800000000000004,0)" xlink:href="#aX"/><use transform="matrix(0.05,0,0,0.05,47.75000000000001,0)" xlink:href="#bU"/><use transform="matrix(0.05,0,0,0.05,56.75,0)" xlink:href="#aS"/></g><g id="T"><use transform="matrix(0.05,0,0,0.05,0,0)" xlink:href="#bs"/><use transform="matrix(0.05,0,0,0.05,5,0)" xlink:href="#ba"/></g><g id="U"><use transform="matrix(0.05,0,0,0.05,0,0)" xlink:href="#bj"/><use transform="matrix(0.05,0,0,0.05,9,0)" xlink:href="#aT"/><use transform="matrix(0.05,0,0,0.05,14.949999999999998,0)" xlink:href="#aS"/><use transform="matrix(0.05,0,0,0.05,24.95,0)" xlink:href="#bc"/><use transform="matrix(0.05,0,0,0.05,34.95,0)" xlink:href="#bs"/><use transform="matrix(0.05,0,0,0.05,39.95,0)" xlink:href="#aS"/></g><path d="M109-170H84l-4-78h32zm-65 0H19l-4-78h33" id="bV"/><g id="V"><use transform="matrix(0.05,0,0,0.05,0,0)" xlink:href="#bV"/><use transform="matrix(0.05,0,0,0.05,6.3500000000000005,0)" xlink:href="#ba"/><use transform="matrix(0.05,0,0,0.05,16.35,0)" xlink:href="#aT"/><use transform="matrix(0.05,0,0,0.05,22.3,0)" xlink:href="#aV"/><use transform="matrix(0.05,0,0,0.05,32.3,0)" xlink:href="#aS"/><use transform="matrix(0.05,0,0,0.05,42.3,0)" xlink:href="#aT"/></g><path d="M9 0v-24l116-142H16v-24h144v24L44-24h123V0H9" id="bW"/><g id="W"><use transform="matrix(0.05,0,0,0.05,0,0)" xlink:href="#aR"/><use transform="matrix(0.05,0,0,0.05,9,0)" xlink:href="#aX"/><use transform="matrix(0.05,0,0,0.05,12.949999999999998,0)" xlink:href="#bW"/><use transform="matrix(0.05,0,0,0.05,21.95,0)" xlink:href="#aS"/><use transform="matrix(0.05,0,0,0.05,31.950000000000003,0)" xlink:href="#bV"/></g><path d="M142-158h-39l-4-90h48zm-75 0H28l-4-90h48" id="bX"/><path d="M238-95c0 69-44 99-111 99C63 4 22-25 22-93v-155h51v151c-1 38 19 59 55 60 90 1 49-130 58-211h52v153" id="bY"/><path d="M137-138c1-29-70-34-71-4 15 46 118 7 119 86 1 83-164 76-172 9l43-7c4 19 20 25 44 25 33 8 57-30 24-41C81-84 22-81 20-136c-2-80 154-74 161-7" id="bZ"/><path d="M135-150c-39-12-60 13-60 57V0H25l-1-190h47c2 13-1 29 3 40 6-28 27-53 61-41v41" id="ca"/><g id="X"><use transform="matrix(0.06172839506172839,0,0,0.06172839506172839,0,0)" xlink:href="#bX"/><use transform="matrix(0.06172839506172839,0,0,0.06172839506172839,10.493827160493826,0)" xlink:href="#bY"/><use transform="matrix(0.06172839506172839,0,0,0.06172839506172839,26.48148148148148,0)" xlink:href="#bZ"/><use transform="matrix(0.06172839506172839,0,0,0.06172839506172839,38.82716049382716,0)" xlink:href="#bL"/><use transform="matrix(0.06172839506172839,0,0,0.06172839506172839,51.172839506172835,0)" xlink:href="#ca"/><use transform="matrix(0.06172839506172839,0,0,0.06172839506172839,59.81481481481481,0)" xlink:href="#bZ"/><use transform="matrix(0.06172839506172839,0,0,0.06172839506172839,72.1604938271605,0)" xlink:href="#bX"/></g><g id="Y"><use transform="matrix(0.06172839506172839,0,0,0.06172839506172839,0,0)" xlink:href="#be"/><use transform="matrix(0.06172839506172839,0,0,0.06172839506172839,7.345679012345679,0)" xlink:href="#bs"/><use transform="matrix(0.06172839506172839,0,0,0.06172839506172839,13.518518518518519,0)" xlink:href="#bc"/><use transform="matrix(0.06172839506172839,0,0,0.06172839506172839,25.864197530864196,0)" xlink:href="#aT"/><use transform="matrix(0.06172839506172839,0,0,0.06172839506172839,33.20987654320987,0)" xlink:href="#by"/><use transform="matrix(0.06172839506172839,0,0,0.06172839506172839,45.55555555555555,0)" xlink:href="#aS"/><use transform="matrix(0.06172839506172839,0,0,0.06172839506172839,57.90123456790123,0)" xlink:href="#bs"/></g><g id="Z"><use transform="matrix(0.06172839506172839,0,0,0.06172839506172839,0,0)" xlink:href="#aS"/><use transform="matrix(0.06172839506172839,0,0,0.06172839506172839,12.345679012345679,0)" xlink:href="#bx"/><use transform="matrix(0.06172839506172839,0,0,0.06172839506172839,24.691358024691358,0)" xlink:href="#bs"/><use transform="matrix(0.06172839506172839,0,0,0.06172839506172839,30.864197530864196,0)" xlink:href="#aX"/><use transform="matrix(0.06172839506172839,0,0,0.06172839506172839,35.74074074074074,0)" xlink:href="#bs"/><use transform="matrix(0.06172839506172839,0,0,0.06172839506172839,41.91358024691358,0)" xlink:href="#bA"/><use transform="matrix(0.06172839506172839,0,0,0.06172839506172839,53.0246913580247,0)" xlink:href="#bk"/></g><path d="M140-251c80 0 125 45 125 126S219 4 139 4C58 4 15-44 15-125s44-126 125-126zm-1 214c52 0 73-35 73-88 0-50-21-86-72-86-52 0-73 35-73 86s22 88 72 88" id="cb"/><path d="M88-194c31-1 46 15 58 34l-1-101h50l1 261h-48c-2-10 0-23-3-31C134-8 116 4 84 4 32 4 16-41 15-95c0-56 19-97 73-99zm17 164c33 0 40-30 41-66 1-37-9-64-41-64s-38 30-39 65c0 43 13 65 39 65" id="cc"/><g id="aa"><use transform="matrix(0.06172839506172839,0,0,0.06172839506172839,0,0)" xlink:href="#bX"/><use transform="matrix(0.06172839506172839,0,0,0.06172839506172839,10.493827160493826,0)" xlink:href="#cb"/><use transform="matrix(0.06172839506172839,0,0,0.06172839506172839,27.777777777777775,0)" xlink:href="#ca"/><use transform="matrix(0.06172839506172839,0,0,0.06172839506172839,36.419753086419746,0)" xlink:href="#cc"/><use transform="matrix(0.06172839506172839,0,0,0.06172839506172839,49.938271604938265,0)" xlink:href="#bL"/><use transform="matrix(0.06172839506172839,0,0,0.06172839506172839,62.28395061728394,0)" xlink:href="#ca"/><use transform="matrix(0.06172839506172839,0,0,0.06172839506172839,70.92592592592592,0)" xlink:href="#bZ"/><use transform="matrix(0.06172839506172839,0,0,0.06172839506172839,83.27160493827161,0)" xlink:href="#bX"/></g><g id="ab"><use transform="matrix(0.06172839506172839,0,0,0.06172839506172839,0,0)" xlink:href="#bX"/><use transform="matrix(0.06172839506172839,0,0,0.06172839506172839,10.493827160493826,0)" xlink:href="#cb"/><use transform="matrix(0.06172839506172839,0,0,0.06172839506172839,27.777777777777775,0)" xlink:href="#ca"/><use transform="matrix(0.06172839506172839,0,0,0.06172839506172839,36.419753086419746,0)" xlink:href="#cc"/><use transform="matrix(0.06172839506172839,0,0,0.06172839506172839,49.938271604938265,0)" xlink:href="#bL"/><use transform="matrix(0.06172839506172839,0,0,0.06172839506172839,62.28395061728394,0)" xlink:href="#ca"/><use transform="matrix(0.06172839506172839,0,0,0.06172839506172839,70.92592592592592,0)" xlink:href="#bZ"/></g><path d="M24-248c93 1 206-16 204 79-1 75-69 88-152 82V0H24v-248zm52 121c47 0 100 7 100-41 0-47-54-39-100-39v80" id="cd"/><path d="M110-194c64 0 96 36 96 99 0 64-35 99-97 99-61 0-95-36-95-99 0-62 34-99 96-99zm-1 164c35 0 45-28 45-65 0-40-10-65-43-65-34 0-45 26-45 65 0 36 10 65 43 65" id="ce"/><path d="M190-63c-7 42-38 67-86 67-59 0-84-38-90-98-12-110 154-137 174-36l-49 2c-2-19-15-32-35-32-30 0-35 28-38 64-6 74 65 87 74 30" id="cf"/><g id="ac"><use transform="matrix(0.06172839506172839,0,0,0.06172839506172839,0,0)" xlink:href="#cd"/><use transform="matrix(0.06172839506172839,0,0,0.06172839506172839,14.814814814814813,0)" xlink:href="#ca"/><use transform="matrix(0.06172839506172839,0,0,0.06172839506172839,23.456790123456788,0)" xlink:href="#ce"/><use transform="matrix(0.06172839506172839,0,0,0.06172839506172839,36.9753086419753,0)" xlink:href="#cc"/><use transform="matrix(0.06172839506172839,0,0,0.06172839506172839,50.49382716049382,0)" xlink:href="#bG"/><use transform="matrix(0.06172839506172839,0,0,0.06172839506172839,64.01234567901234,0)" xlink:href="#cf"/><use transform="matrix(0.06172839506172839,0,0,0.06172839506172839,76.35802469135803,0)" xlink:href="#bK"/><use transform="matrix(0.06172839506172839,0,0,0.06172839506172839,83.70370370370371,0)" xlink:href="#bZ"/><use transform="matrix(0.06172839506172839,0,0,0.06172839506172839,96.0493827160494,0)" xlink:href="#bX"/></g><g id="ad"><use transform="matrix(0.05,0,0,0.05,0,0)" xlink:href="#bf"/><use transform="matrix(0.05,0,0,0.05,12,0)" xlink:href="#bg"/><use transform="matrix(0.05,0,0,0.05,22,0)" xlink:href="#bh"/></g><path d="M230 0l2-204L168 0h-37L68-204 70 0H24v-248h70l56 185 57-185h69V0h-46" id="cg"/><path d="M133-34C117-15 103 5 69 4 32 3 11-16 11-54c-1-60 55-63 116-61 1-26-3-47-28-47-18 1-26 9-28 27l-52-2c7-38 36-58 82-57s74 22 75 68l1 82c-1 14 12 18 25 15v27c-30 8-71 5-69-32zm-48 3c29 0 43-24 42-57-32 0-66-3-65 30 0 17 8 27 23 27" id="ch"/><path d="M144 0l-44-69L55 0H2l70-98-66-92h53l41 62 40-62h54l-67 91 71 99h-54" id="ci"/><g id="ae"><use transform="matrix(0.05,0,0,0.05,0,0)" xlink:href="#cg"/><use transform="matrix(0.05,0,0,0.05,14.950000000000001,0)" xlink:href="#ch"/><use transform="matrix(0.05,0,0,0.05,24.950000000000003,0)" xlink:href="#ci"/></g><path d="M182-182c0 78-84 86-111 141h115V0H12c-6-101 99-100 120-180 1-22-12-31-33-32-23 0-32 14-35 34l-49-3c5-45 32-70 84-70 51 0 83 22 83 69" id="cj"/><g id="af"><use transform="matrix(0.05,0,0,0.05,0,0)" xlink:href="#cj"/><use transform="matrix(0.05,0,0,0.05,10,0)" xlink:href="#bO"/></g><path d="M285-1169c8 382 2 780 4 1169H129v-1349h237c86 239 188 461 253 720 69-258 169-481 255-720h225V0H937c2-390-5-788 6-1169-75 255-170 488-259 729H547c-90-240-185-475-262-729" id="ck"/><path d="M1000-272c3 95 12 159 101 161 21 0 41-3 59-7V-6c-44 10-86 16-139 16-141 2-191-84-197-217h-6C748-76 648 20 446 20c-207 0-318-120-318-322 0-266 194-348 454-354l236-4c12-191-40-305-222-305-140 0-220 47-232 172l-188-17c33-204 181-292 423-292 255 0 401 118 401 364v466zm-683-27c0 109 63 184 175 182 166-3 259-96 306-217 24-65 20-120 20-200-232 7-501-28-501 235" id="cl"/><path d="M932 0L611-444 288 0H94l415-556-397-526h199l300 421 298-421h201L713-558 1133 0H932" id="cm"/><g id="ag"><use transform="matrix(0.0087890625,0,0,0.0087890625,0,0)" xlink:href="#ck"/><use transform="matrix(0.0087890625,0,0,0.0087890625,10.8017578125,0)" xlink:href="#cl"/><use transform="matrix(0.0087890625,0,0,0.0087890625,21.603515625,0)" xlink:href="#cm"/></g><g id="ah"><use transform="matrix(0.05,0,0,0.05,0,0)" xlink:href="#bV"/><use transform="matrix(0.05,0,0,0.05,6.3500000000000005,0)" xlink:href="#bb"/><use transform="matrix(0.05,0,0,0.05,21.3,0)" xlink:href="#bc"/><use transform="matrix(0.05,0,0,0.05,31.3,0)" xlink:href="#bd"/><use transform="matrix(0.05,0,0,0.05,40.3,0)" xlink:href="#aX"/><use transform="matrix(0.05,0,0,0.05,44.25,0)" xlink:href="#bh"/><use transform="matrix(0.05,0,0,0.05,59.2,0)" xlink:href="#bg"/><use transform="matrix(0.05,0,0,0.05,69.2,0)" xlink:href="#bh"/></g><g id="ai"><use transform="matrix(0.05,0,0,0.05,0,0)" xlink:href="#ba"/><use transform="matrix(0.05,0,0,0.05,10,0)" xlink:href="#aT"/><use transform="matrix(0.05,0,0,0.05,15.949999999999998,0)" xlink:href="#aV"/><use transform="matrix(0.05,0,0,0.05,25.950000000000003,0)" xlink:href="#aS"/><use transform="matrix(0.05,0,0,0.05,35.95,0)" xlink:href="#aT"/></g><path d="M197 0v-115H63V0H30v-248h33v105h134v-105h34V0h-34" id="cn"/><path d="M206 0h-36l-40-164L89 0H53L-1-190h32L70-26l43-164h34l41 164 42-164h31" id="co"/><g id="aj"><use transform="matrix(0.0742743478121109,0,0,0.0742743478121109,0,0)" xlink:href="#cn"/><use transform="matrix(0.0742743478121109,0,0,0.0742743478121109,19.23705608333672,0)" xlink:href="#ba"/><use transform="matrix(0.0742743478121109,0,0,0.0742743478121109,34.0919256457589,0)" xlink:href="#co"/></g><g id="ak"><use transform="matrix(0.0742743478121109,0,0,0.0742743478121109,0,0)" xlink:href="#br"/><use transform="matrix(0.0742743478121109,0,0,0.0742743478121109,19.23705608333672,0)" xlink:href="#aS"/><use transform="matrix(0.0742743478121109,0,0,0.0742743478121109,34.0919256457589,0)" xlink:href="#aS"/><use transform="matrix(0.0742743478121109,0,0,0.0742743478121109,48.94679520818108,0)" xlink:href="#aY"/></g><path d="M63-220v92h138v28H63V0H30v-248h175v28H63" id="cp"/><g id="al"><use transform="matrix(0.0742743478121109,0,0,0.0742743478121109,0,0)" xlink:href="#cp"/><use transform="matrix(0.0742743478121109,0,0,0.0742743478121109,16.266082170852286,0)" xlink:href="#aS"/><use transform="matrix(0.0742743478121109,0,0,0.0742743478121109,31.120951733274467,0)" xlink:href="#bc"/><use transform="matrix(0.0742743478121109,0,0,0.0742743478121109,45.97582129569665,0)" xlink:href="#bs"/><use transform="matrix(0.0742743478121109,0,0,0.0742743478121109,53.40325607690774,0)" xlink:href="#bg"/><use transform="matrix(0.0742743478121109,0,0,0.0742743478121109,68.25812563932992,0)" xlink:href="#aT"/><use transform="matrix(0.0742743478121109,0,0,0.0742743478121109,77.09677302897111,0)" xlink:href="#aS"/></g><g id="am"><use transform="matrix(0.0742743478121109,0,0,0.0742743478121109,0,0)" xlink:href="#bf"/><use transform="matrix(0.0742743478121109,0,0,0.0742743478121109,17.825843474906616,0)" xlink:href="#bA"/><use transform="matrix(0.0742743478121109,0,0,0.0742743478121109,31.195226081086577,0)" xlink:href="#bx"/><use transform="matrix(0.0742743478121109,0,0,0.0742743478121109,46.050095643508755,0)" xlink:href="#bs"/><use transform="matrix(0.0742743478121109,0,0,0.0742743478121109,53.477530424719845,0)" xlink:href="#bw"/><use transform="matrix(0.0742743478121109,0,0,0.0742743478121109,68.33239998714203,0)" xlink:href="#aS"/><use transform="matrix(0.0742743478121109,0,0,0.0742743478121109,83.1872695495642,0)" xlink:href="#aR"/><use transform="matrix(0.0742743478121109,0,0,0.0742743478121109,96.55665215574416,0)" xlink:href="#aX"/><use transform="matrix(0.0742743478121109,0,0,0.0742743478121109,102.4243256329009,0)" xlink:href="#aR"/></g><g id="an"><use transform="matrix(0.0742743478121109,0,0,0.0742743478121109,0,0)" xlink:href="#bj"/><use transform="matrix(0.0742743478121109,0,0,0.0742743478121109,13.369382606179961,0)" xlink:href="#bc"/><use transform="matrix(0.0742743478121109,0,0,0.0742743478121109,28.224252168602142,0)" xlink:href="#bQ"/><use transform="matrix(0.0742743478121109,0,0,0.0742743478121109,34.091925645758906,0)" xlink:href="#bj"/><use transform="matrix(0.0742743478121109,0,0,0.0742743478121109,47.46130825193886,0)" xlink:href="#bg"/><use transform="matrix(0.0742743478121109,0,0,0.0742743478121109,62.31617781436105,0)" xlink:href="#bQ"/><use transform="matrix(0.0742743478121109,0,0,0.0742743478121109,68.18385129151781,0)" xlink:href="#bc"/><use transform="matrix(0.0742743478121109,0,0,0.0742743478121109,83.03872085394,0)" xlink:href="#bs"/><use transform="matrix(0.0742743478121109,0,0,0.0742743478121109,90.46615563515108,0)" xlink:href="#aS"/><use transform="matrix(0.0742743478121109,0,0,0.0742743478121109,105.32102519757326,0)" xlink:href="#aR"/></g><path d="M101-234c-31-9-42 10-38 44h38v23H63V0H32v-167H5v-23h27c-7-52 17-82 69-68v24" id="cq"/><g id="ao"><use transform="matrix(0.0742743478121109,0,0,0.0742743478121109,0,0)" xlink:href="#cq"/><use transform="matrix(0.0742743478121109,0,0,0.0742743478121109,7.4274347812110895,0)" xlink:href="#aS"/><use transform="matrix(0.0742743478121109,0,0,0.0742743478121109,22.282304343633268,0)" xlink:href="#bc"/><use transform="matrix(0.0742743478121109,0,0,0.0742743478121109,37.137173906055445,0)" xlink:href="#bs"/><use transform="matrix(0.0742743478121109,0,0,0.0742743478121109,44.564608687266535,0)" xlink:href="#bg"/><use transform="matrix(0.0742743478121109,0,0,0.0742743478121109,59.419478249688716,0)" xlink:href="#aT"/><use transform="matrix(0.0742743478121109,0,0,0.0742743478121109,68.25812563932992,0)" xlink:href="#aS"/><use transform="matrix(0.0742743478121109,0,0,0.0742743478121109,83.1129952017521,0)" xlink:href="#aR"/></g><g id="ap"><use transform="matrix(0.0742743478121109,0,0,0.0742743478121109,0,0)" xlink:href="#cq"/><use transform="matrix(0.0742743478121109,0,0,0.0742743478121109,7.4274347812110895,0)" xlink:href="#ba"/><use transform="matrix(0.0742743478121109,0,0,0.0742743478121109,22.282304343633268,0)" xlink:href="#aT"/></g><path d="M16-82v-28h88v28H16" id="cr"/><path d="M115-194c53 0 69 39 70 98 0 66-23 100-70 100C84 3 66-7 56-30L54 0H23l1-261h32v101c10-23 28-34 59-34zm-8 174c40 0 45-34 45-75 0-40-5-75-45-74-42 0-51 32-51 76 0 43 10 73 51 73" id="cs"/><g id="aq"><use transform="matrix(0.0742743478121109,0,0,0.0742743478121109,0,0)" xlink:href="#bh"/><use transform="matrix(0.0742743478121109,0,0,0.0742743478121109,22.208029995821157,0)" xlink:href="#bg"/><use transform="matrix(0.0742743478121109,0,0,0.0742743478121109,37.06289955824334,0)" xlink:href="#bQ"/><use transform="matrix(0.0742743478121109,0,0,0.0742743478121109,42.9305730354001,0)" xlink:href="#bs"/><use transform="matrix(0.0742743478121109,0,0,0.0742743478121109,50.358007816611185,0)" xlink:href="#aX"/><use transform="matrix(0.0742743478121109,0,0,0.0742743478121109,56.225681293767956,0)" xlink:href="#cr"/><use transform="matrix(0.0742743478121109,0,0,0.0742743478121109,65.06432868340916,0)" xlink:href="#bs"/><use transform="matrix(0.0742743478121109,0,0,0.0742743478121109,72.49176346462025,0)" xlink:href="#bc"/><use transform="matrix(0.0742743478121109,0,0,0.0742743478121109,87.34663302704243,0)" xlink:href="#cs"/><use transform="matrix(0.0742743478121109,0,0,0.0742743478121109,102.20150258946461,0)" xlink:href="#bQ"/><use transform="matrix(0.0742743478121109,0,0,0.0742743478121109,108.06917606662137,0)" xlink:href="#aS"/></g><g id="ar"><use transform="matrix(0.0742743478121109,0,0,0.0742743478121109,0,0)" xlink:href="#aV"/><use transform="matrix(0.0742743478121109,0,0,0.0742743478121109,14.854869562422179,0)" xlink:href="#bc"/><use transform="matrix(0.0742743478121109,0,0,0.0742743478121109,29.709739124844358,0)" xlink:href="#bs"/><use transform="matrix(0.0742743478121109,0,0,0.0742743478121109,37.137173906055445,0)" xlink:href="#bc"/><use transform="matrix(0.0742743478121109,0,0,0.0742743478121109,51.992043468477625,0)" xlink:href="#aR"/><use transform="matrix(0.0742743478121109,0,0,0.0742743478121109,65.36142607465759,0)" xlink:href="#aS"/><use transform="matrix(0.0742743478121109,0,0,0.0742743478121109,80.21629563707977,0)" xlink:href="#bs"/><use transform="matrix(0.0742743478121109,0,0,0.0742743478121109,87.64373041829086,0)" xlink:href="#aR"/><use transform="matrix(0.0742743478121109,0,0,0.0742743478121109,101.01311302447083,0)" xlink:href="#bJ"/></g><g id="as"><use transform="matrix(0.0742743478121109,0,0,0.0742743478121109,0,0)" xlink:href="#aU"/><use transform="matrix(0.0742743478121109,0,0,0.0742743478121109,7.4274347812110895,0)" xlink:href="#bx"/></g><g id="at"><use transform="matrix(0.0742743478121109,0,0,0.0742743478121109,0,0)" xlink:href="#bs"/><use transform="matrix(0.0742743478121109,0,0,0.0742743478121109,7.4274347812110895,0)" xlink:href="#bw"/><use transform="matrix(0.0742743478121109,0,0,0.0742743478121109,22.282304343633268,0)" xlink:href="#aX"/><use transform="matrix(0.0742743478121109,0,0,0.0742743478121109,28.149977820790024,0)" xlink:href="#aR"/></g><path d="M68-38c1 34 0 65-14 84H32c9-13 17-26 17-46H33v-38h35" id="ct"/><g id="au"><use transform="matrix(0.0742743478121109,0,0,0.0742743478121109,0,0)" xlink:href="#bj"/><use transform="matrix(0.0742743478121109,0,0,0.0742743478121109,13.369382606179961,0)" xlink:href="#bc"/><use transform="matrix(0.0742743478121109,0,0,0.0742743478121109,28.224252168602142,0)" xlink:href="#aR"/><use transform="matrix(0.0742743478121109,0,0,0.0742743478121109,41.5936347747821,0)" xlink:href="#aS"/><use transform="matrix(0.0742743478121109,0,0,0.0742743478121109,56.448504337204284,0)" xlink:href="#ct"/></g><g id="av"><use transform="matrix(0.0742743478121109,0,0,0.0742743478121109,0,0)" xlink:href="#aX"/><use transform="matrix(0.0742743478121109,0,0,0.0742743478121109,5.867673477156761,0)" xlink:href="#bs"/></g><g id="aw"><use transform="matrix(0.0742743478121109,0,0,0.0742743478121109,0,0)" xlink:href="#aX"/><use transform="matrix(0.0742743478121109,0,0,0.0742743478121109,5.867673477156761,0)" xlink:href="#aR"/></g><g id="ax"><use transform="matrix(0.0742743478121109,0,0,0.0742743478121109,0,0)" xlink:href="#bj"/><use transform="matrix(0.0742743478121109,0,0,0.0742743478121109,13.369382606179961,0)" xlink:href="#bc"/><use transform="matrix(0.0742743478121109,0,0,0.0742743478121109,28.224252168602142,0)" xlink:href="#bQ"/><use transform="matrix(0.0742743478121109,0,0,0.0742743478121109,34.091925645758906,0)" xlink:href="#bj"/><use transform="matrix(0.0742743478121109,0,0,0.0742743478121109,47.46130825193886,0)" xlink:href="#bg"/><use transform="matrix(0.0742743478121109,0,0,0.0742743478121109,62.31617781436105,0)" xlink:href="#bQ"/><use transform="matrix(0.0742743478121109,0,0,0.0742743478121109,68.18385129151781,0)" xlink:href="#bc"/><use transform="matrix(0.0742743478121109,0,0,0.0742743478121109,83.03872085394,0)" xlink:href="#bs"/><use transform="matrix(0.0742743478121109,0,0,0.0742743478121109,90.46615563515108,0)" xlink:href="#aX"/><use transform="matrix(0.0742743478121109,0,0,0.0742743478121109,96.33382911230784,0)" xlink:href="#bx"/><use transform="matrix(0.0742743478121109,0,0,0.0742743478121109,111.18869867473,0)" xlink:href="#by"/></g><g id="ay"><use transform="matrix(0.0742743478121109,0,0,0.0742743478121109,0,0)" xlink:href="#bs"/><use transform="matrix(0.0742743478121109,0,0,0.0742743478121109,7.4274347812110895,0)" xlink:href="#bw"/><use transform="matrix(0.0742743478121109,0,0,0.0742743478121109,22.282304343633268,0)" xlink:href="#aS"/></g><g id="az"><use transform="matrix(0.0742743478121109,0,0,0.0742743478121109,0,0)" xlink:href="#bh"/><use transform="matrix(0.0742743478121109,0,0,0.0742743478121109,22.208029995821157,0)" xlink:href="#bc"/><use transform="matrix(0.0742743478121109,0,0,0.0742743478121109,37.06289955824334,0)" xlink:href="#bd"/><use transform="matrix(0.0742743478121109,0,0,0.0742743478121109,50.4322821644233,0)" xlink:href="#aX"/><use transform="matrix(0.0742743478121109,0,0,0.0742743478121109,56.29995564158006,0)" xlink:href="#bh"/><use transform="matrix(0.0742743478121109,0,0,0.0742743478121109,78.50798563740122,0)" xlink:href="#bg"/><use transform="matrix(0.0742743478121109,0,0,0.0742743478121109,93.3628551998234,0)" xlink:href="#bh"/></g><g id="aA"><use transform="matrix(0.0742743478121109,0,0,0.0742743478121109,0,0)" xlink:href="#aR"/><use transform="matrix(0.0742743478121109,0,0,0.0742743478121109,13.369382606179961,0)" xlink:href="#aY"/><use transform="matrix(0.0742743478121109,0,0,0.0742743478121109,28.224252168602142,0)" xlink:href="#aS"/><use transform="matrix(0.0742743478121109,0,0,0.0742743478121109,43.07912173102432,0)" xlink:href="#bx"/><use transform="matrix(0.0742743478121109,0,0,0.0742743478121109,57.933991293446496,0)" xlink:href="#bs"/></g><g id="aB"><use transform="matrix(0.0742743478121109,0,0,0.0742743478121109,0,0)" xlink:href="#aX"/><use transform="matrix(0.0742743478121109,0,0,0.0742743478121109,5.867673477156761,0)" xlink:href="#bx"/></g><g id="aC"><use transform="matrix(0.0742743478121109,0,0,0.0742743478121109,0,0)" xlink:href="#bc"/><use transform="matrix(0.0742743478121109,0,0,0.0742743478121109,14.854869562422179,0)" xlink:href="#bx"/><use transform="matrix(0.0742743478121109,0,0,0.0742743478121109,29.709739124844358,0)" xlink:href="#bA"/></g><g id="aD"><use transform="matrix(0.0742743478121109,0,0,0.0742743478121109,0,0)" xlink:href="#ba"/><use transform="matrix(0.0742743478121109,0,0,0.0742743478121109,14.854869562422179,0)" xlink:href="#aT"/><use transform="matrix(0.0742743478121109,0,0,0.0742743478121109,23.693516952063376,0)" xlink:href="#aV"/><use transform="matrix(0.0742743478121109,0,0,0.0742743478121109,38.54838651448556,0)" xlink:href="#aS"/><use transform="matrix(0.0742743478121109,0,0,0.0742743478121109,53.40325607690774,0)" xlink:href="#aT"/></g><g id="aE"><use transform="matrix(0.0742743478121109,0,0,0.0742743478121109,0,0)" xlink:href="#aS"/><use transform="matrix(0.0742743478121109,0,0,0.0742743478121109,14.854869562422179,0)" xlink:href="#bc"/><use transform="matrix(0.0742743478121109,0,0,0.0742743478121109,29.709739124844358,0)" xlink:href="#bj"/><use transform="matrix(0.0742743478121109,0,0,0.0742743478121109,43.07912173102431,0)" xlink:href="#bw"/></g><g id="aF"><use transform="matrix(0.0742743478121109,0,0,0.0742743478121109,0,0)" xlink:href="#aT"/><use transform="matrix(0.0742743478121109,0,0,0.0742743478121109,8.838647389641197,0)" xlink:href="#ba"/><use transform="matrix(0.0742743478121109,0,0,0.0742743478121109,23.693516952063376,0)" xlink:href="#co"/></g><g id="aG"><use transform="matrix(0.0742743478121109,0,0,0.0742743478121109,0,0)" xlink:href="#bV"/><use transform="matrix(0.0742743478121109,0,0,0.0742743478121109,9.432842172138084,0)" xlink:href="#aQ"/><use transform="matrix(0.0742743478121109,0,0,0.0742743478121109,28.669898255474806,0)" xlink:href="#aR"/><use transform="matrix(0.0742743478121109,0,0,0.0742743478121109,42.03928086165477,0)" xlink:href="#aS"/><use transform="matrix(0.0742743478121109,0,0,0.0742743478121109,56.89415042407695,0)" xlink:href="#aT"/><use transform="matrix(0.0742743478121109,0,0,0.0742743478121109,65.73279781371815,0)" xlink:href="#aR"/><use transform="matrix(0.0742743478121109,0,0,0.0742743478121109,79.1021804198981,0)" xlink:href="#bV"/></g><g id="aH"><use transform="matrix(0.0742743478121109,0,0,0.0742743478121109,0,0)" xlink:href="#aS"/><use transform="matrix(0.0742743478121109,0,0,0.0742743478121109,14.854869562422179,0)" xlink:href="#bx"/><use transform="matrix(0.0742743478121109,0,0,0.0742743478121109,29.709739124844358,0)" xlink:href="#bs"/><use transform="matrix(0.0742743478121109,0,0,0.0742743478121109,37.137173906055445,0)" xlink:href="#aX"/><use transform="matrix(0.0742743478121109,0,0,0.0742743478121109,43.00484738321221,0)" xlink:href="#bs"/><use transform="matrix(0.0742743478121109,0,0,0.0742743478121109,50.4322821644233,0)" xlink:href="#bA"/><use transform="matrix(0.0742743478121109,0,0,0.0742743478121109,61.79625737967626,0)" xlink:href="#bJ"/></g><g id="aI"><use transform="matrix(0.0742743478121109,0,0,0.0742743478121109,0,0)" xlink:href="#br"/><use transform="matrix(0.0742743478121109,0,0,0.0742743478121109,19.23705608333672,0)" xlink:href="#cp"/><use transform="matrix(0.0742743478121109,0,0,0.0742743478121109,35.50313825418901,0)" xlink:href="#bf"/></g><g id="aJ"><use transform="matrix(0.0742743478121109,0,0,0.0742743478121109,0,0)" xlink:href="#aY"/><use transform="matrix(0.0742743478121109,0,0,0.0742743478121109,14.854869562422179,0)" xlink:href="#ba"/><use transform="matrix(0.0742743478121109,0,0,0.0742743478121109,29.709739124844358,0)" xlink:href="#co"/><use transform="matrix(0.0742743478121109,0,0,0.0742743478121109,48.94679520818108,0)" xlink:href="#aS"/><use transform="matrix(0.0742743478121109,0,0,0.0742743478121109,63.80166477060326,0)" xlink:href="#aT"/><use transform="matrix(0.0742743478121109,0,0,0.0742743478121109,72.64031216024446,0)" xlink:href="#cq"/><use transform="matrix(0.0742743478121109,0,0,0.0742743478121109,80.06774694145555,0)" xlink:href="#bg"/><use transform="matrix(0.0742743478121109,0,0,0.0742743478121109,94.92261650387772,0)" xlink:href="#bQ"/></g><g id="aK"><use transform="matrix(0.0742743478121109,0,0,0.0742743478121109,0,0)" xlink:href="#cs"/><use transform="matrix(0.0742743478121109,0,0,0.0742743478121109,14.854869562422179,0)" xlink:href="#aS"/><use transform="matrix(0.0742743478121109,0,0,0.0742743478121109,29.709739124844358,0)" xlink:href="#bj"/><use transform="matrix(0.0742743478121109,0,0,0.0742743478121109,43.07912173102431,0)" xlink:href="#bc"/><use transform="matrix(0.0742743478121109,0,0,0.0742743478121109,57.933991293446496,0)" xlink:href="#bg"/><use transform="matrix(0.0742743478121109,0,0,0.0742743478121109,72.78886085586868,0)" xlink:href="#aR"/><use transform="matrix(0.0742743478121109,0,0,0.0742743478121109,86.15824346204862,0)" xlink:href="#aS"/></g><g id="aL"><use transform="matrix(0.0742743478121109,0,0,0.0742743478121109,0,0)" xlink:href="#bj"/><use transform="matrix(0.0742743478121109,0,0,0.0742743478121109,13.369382606179961,0)" xlink:href="#bc"/><use transform="matrix(0.0742743478121109,0,0,0.0742743478121109,28.224252168602142,0)" xlink:href="#bx"/></g><g id="aM"><use transform="matrix(0.0742743478121109,0,0,0.0742743478121109,0,0)" xlink:href="#bj"/><use transform="matrix(0.0742743478121109,0,0,0.0742743478121109,13.369382606179961,0)" xlink:href="#aT"/><use transform="matrix(0.0742743478121109,0,0,0.0742743478121109,22.208029995821157,0)" xlink:href="#aS"/><use transform="matrix(0.0742743478121109,0,0,0.0742743478121109,37.06289955824334,0)" xlink:href="#bc"/><use transform="matrix(0.0742743478121109,0,0,0.0742743478121109,51.91776912066552,0)" xlink:href="#bs"/><use transform="matrix(0.0742743478121109,0,0,0.0742743478121109,59.34520390187661,0)" xlink:href="#aS"/></g><g id="aN"><use transform="matrix(0.0742743478121109,0,0,0.0742743478121109,0,0)" xlink:href="#aS"/><use transform="matrix(0.0742743478121109,0,0,0.0742743478121109,14.854869562422179,0)" xlink:href="#bx"/><use transform="matrix(0.0742743478121109,0,0,0.0742743478121109,29.709739124844358,0)" xlink:href="#bs"/><use transform="matrix(0.0742743478121109,0,0,0.0742743478121109,37.137173906055445,0)" xlink:href="#aX"/><use transform="matrix(0.0742743478121109,0,0,0.0742743478121109,43.00484738321221,0)" xlink:href="#bs"/><use transform="matrix(0.0742743478121109,0,0,0.0742743478121109,50.4322821644233,0)" xlink:href="#bA"/></g><use transform="matrix(0.0742743478121109,0,0,0.0742743478121109,0,0)" xlink:href="#bc" id="aO"/><g id="aP"><use transform="matrix(0.0742743478121109,0,0,0.0742743478121109,0,0)" xlink:href="#aV"/><use transform="matrix(0.0742743478121109,0,0,0.0742743478121109,14.854869562422179,0)" xlink:href="#bc"/><use transform="matrix(0.0742743478121109,0,0,0.0742743478121109,29.709739124844358,0)" xlink:href="#bs"/><use transform="matrix(0.0742743478121109,0,0,0.0742743478121109,37.137173906055445,0)" xlink:href="#bc"/><use transform="matrix(0.0742743478121109,0,0,0.0742743478121109,51.992043468477625,0)" xlink:href="#aR"/><use transform="matrix(0.0742743478121109,0,0,0.0742743478121109,65.36142607465759,0)" xlink:href="#aS"/><use transform="matrix(0.0742743478121109,0,0,0.0742743478121109,80.21629563707977,0)" xlink:href="#bs"/><use transform="matrix(0.0742743478121109,0,0,0.0742743478121109,87.64373041829086,0)" xlink:href="#bJ"/></g></defs></g></svg>